<?xml version="1.0" standalone="no"?>
<!DOCTYPE svg PUBLIC "-//W3C//DTD SVG 20010904//EN"
 "http://www.w3.org/TR/2001/REC-SVG-20010904/DTD/svg10.dtd">
<svg version="1.0" xmlns="http://www.w3.org/2000/svg"
 width="1108.000000pt" height="1108.000000pt" viewBox="0 0 1108.000000 1108.000000"
 preserveAspectRatio="xMidYMid meet">
<metadata>
Created by potrace 1.12, written by Peter Selinger 2001-2015
</metadata>
<g transform="translate(0.000000,1108.000000) scale(0.100000,-0.100000)"
fill="#000000" stroke="none">
<path d="M1734 9563 c-8 -9 -15 -10 -19 -3 -10 15 -25 2 -18 -16 4 -10 1 -15
-8 -14 -35 5 -59 -1 -59 -16 0 -8 -4 -13 -9 -9 -5 3 -12 1 -16 -5 -4 -6 -10
-8 -15 -5 -7 4 -19 -13 -16 -25 0 -3 -13 -20 -29 -38 -16 -18 -30 -40 -31 -49
-2 -9 -7 -19 -11 -22 -12 -8 -11 -2 -16 -281 -2 -129 0 -243 5 -252 5 -10 5
-18 1 -18 -4 0 -8 -29 -8 -64 1 -42 -3 -62 -10 -58 -5 3 -5 -1 2 -9 13 -16 20
-170 8 -188 -4 -7 -5 -15 -2 -18 3 -3 -5 -16 -17 -30 -20 -21 -34 -26 -84 -28
-33 -1 -63 -5 -68 -7 -5 -3 -17 -3 -27 1 -20 7 -190 -45 -195 -60 -2 -5 -8 -9
-13 -9 -4 0 -6 7 -3 15 10 25 -5 17 -37 -20 -17 -19 -39 -35 -50 -35 -10 0
-35 -18 -55 -40 -21 -22 -43 -40 -50 -40 -12 0 -84 -98 -97 -132 -3 -10 -11
-18 -17 -18 -6 0 -8 -5 -5 -10 4 -6 3 -16 -3 -23 -11 -14 -38 -109 -34 -121 2
-4 -2 -14 -8 -20 -5 -7 -7 -16 -3 -19 3 -4 0 -7 -8 -7 -11 0 -11 -2 1 -10 8
-5 10 -10 4 -10 -7 0 -10 -20 -9 -52 1 -29 -1 -55 -6 -58 -4 -3 -4 -23 1 -45
4 -22 7 -68 6 -103 -1 -58 6 -78 17 -49 4 7 6 6 6 -4 1 -9 -6 -19 -14 -23 -17
-6 -21 -71 -6 -81 5 -3 6 -17 2 -33 -5 -15 -7 -55 -6 -90 2 -34 -1 -65 -6 -68
-6 -4 -6 -10 -1 -17 11 -13 10 -222 0 -233 -4 -4 -1 -22 7 -41 10 -24 12 -46
6 -78 -5 -26 -4 -48 1 -53 9 -9 13 -32 21 -109 1 -12 8 -28 14 -35 18 -17 16
-28 -4 -28 -13 0 -15 -2 -5 -8 7 -5 14 -19 17 -31 2 -13 9 -29 15 -35 5 -7 7
-16 4 -19 -3 -3 -2 -12 2 -19 5 -7 7 -24 5 -37 -2 -16 1 -21 9 -16 8 5 11 3 8
-6 -3 -8 1 -20 9 -27 7 -7 13 -26 13 -42 0 -16 4 -30 10 -32 5 -1 11 -12 13
-23 2 -11 9 -30 16 -43 7 -13 10 -30 7 -38 -3 -8 1 -14 9 -14 8 0 15 -9 15
-20 0 -11 9 -29 20 -40 11 -11 21 -23 21 -27 6 -31 23 -63 33 -63 7 0 18 -19
25 -42 15 -51 37 -78 63 -78 20 0 25 -25 7 -36 -6 -3 2 -14 20 -25 17 -10 31
-26 31 -34 0 -9 5 -13 10 -10 6 3 10 -3 10 -14 0 -12 3 -21 8 -21 12 0 58 -44
65 -62 3 -10 11 -18 17 -18 6 0 8 -4 5 -10 -3 -5 1 -10 9 -10 8 0 20 -9 26
-20 6 -11 17 -20 25 -20 7 0 17 -9 20 -21 4 -11 18 -25 31 -31 13 -6 26 -19
29 -30 4 -10 15 -23 26 -29 12 -6 18 -17 15 -25 -3 -9 1 -14 14 -14 11 0 37
-17 57 -37 21 -21 41 -36 46 -35 4 1 7 -5 7 -13 0 -8 6 -15 14 -15 7 0 19 -6
25 -14 6 -7 25 -16 42 -20 22 -4 30 -10 25 -21 -3 -10 3 -17 19 -21 13 -3 23
-11 22 -17 -1 -6 15 -19 36 -29 21 -10 42 -29 47 -41 7 -17 9 -18 9 -4 1 16 3
15 20 -2 11 -11 38 -25 61 -32 23 -7 47 -20 53 -28 18 -24 75 -51 92 -45 9 4
15 0 15 -8 0 -17 41 -38 74 -38 13 0 43 -11 67 -23 24 -13 49 -22 55 -20 7 2
19 -3 28 -12 9 -9 20 -14 25 -10 5 3 12 1 16 -5 3 -5 14 -10 24 -10 27 0 66
-51 68 -90 1 -19 4 -59 6 -87 2 -33 -1 -53 -7 -53 -7 0 -8 -3 -1 -8 12 -8 16
-104 4 -112 -4 -3 -3 -43 2 -90 6 -59 5 -88 -3 -98 -8 -9 -8 -16 -2 -20 6 -4
10 -43 11 -87 0 -44 3 -91 7 -103 5 -14 3 -22 -4 -22 -7 0 -8 -6 -2 -16 6 -10
5 -41 -3 -80 -6 -35 -9 -64 -5 -64 3 0 6 -16 6 -35 0 -19 -2 -35 -5 -35 -10 0
-5 -63 6 -90 6 -14 7 -30 2 -36 -5 -6 -7 -43 -5 -82 2 -40 0 -72 -5 -72 -5 0
-4 -12 1 -26 7 -17 7 -32 0 -45 -6 -10 -7 -19 -2 -19 6 0 8 -278 3 -405 -1 -5
2 -30 4 -55 3 -25 6 -49 5 -55 -6 -216 -4 -311 7 -331 6 -13 8 -24 3 -24 -6 0
-6 -10 0 -25 5 -14 6 -25 2 -25 -4 0 -1 -4 7 -9 10 -7 12 -13 5 -23 -12 -15
-18 -82 -7 -75 5 3 14 -1 20 -9 9 -8 9 -15 2 -19 -7 -5 -6 -11 2 -21 9 -11 9
-14 -1 -14 -9 0 -9 -4 -2 -12 10 -13 44 -119 47 -148 1 -8 2 -23 3 -32 1 -10
9 -18 17 -18 8 0 16 -6 16 -12 1 -7 3 -23 4 -35 1 -11 12 -37 24 -56 11 -19
21 -45 21 -58 0 -14 9 -30 21 -37 12 -8 18 -19 15 -28 -3 -8 1 -17 10 -21 8
-3 13 -12 10 -20 -3 -8 -2 -11 3 -8 5 3 12 -3 16 -14 3 -10 14 -26 25 -36 11
-10 16 -24 13 -33 -4 -10 -2 -13 5 -8 7 4 12 2 12 -4 0 -6 15 -26 33 -43 36
-36 57 -69 57 -92 0 -8 4 -15 9 -15 5 0 22 -14 38 -30 15 -17 34 -30 41 -30 7
0 11 -4 8 -9 -3 -4 3 -16 14 -26 11 -10 20 -16 20 -13 0 4 14 -7 31 -23 17
-16 35 -29 39 -29 4 0 10 -9 13 -21 3 -11 15 -23 26 -26 12 -3 21 -9 21 -14 0
-5 5 -9 12 -9 6 0 36 -25 65 -57 29 -31 53 -51 53 -44 0 8 5 7 16 -3 8 -9 24
-16 35 -16 10 0 19 -3 19 -7 0 -5 19 -17 43 -27 23 -11 50 -27 60 -35 9 -8 20
-11 24 -8 3 4 12 2 19 -3 6 -6 31 -14 55 -19 24 -4 43 -12 42 -19 -3 -13 32
-26 47 -17 5 3 10 -1 10 -9 0 -9 3 -15 8 -14 11 2 46 -14 54 -26 5 -7 8 -6 8
3 0 10 3 11 13 3 13 -11 99 -24 145 -23 13 1 33 -6 46 -14 13 -9 31 -13 40 -9
9 3 23 1 31 -6 9 -7 18 -10 22 -7 3 4 13 2 20 -5 11 -9 16 -9 23 2 5 8 15 10
26 5 30 -12 216 -6 230 8 4 4 41 4 82 1 41 -3 72 -2 69 3 -5 7 14 11 71 14 12
1 22 5 22 9 0 4 11 10 25 12 18 4 25 1 25 -11 0 -9 3 -12 8 -6 9 13 74 36 66
24 -7 -12 -1 -11 32 5 15 8 31 13 35 11 4 -3 9 2 13 10 3 8 11 12 18 10 8 -3
24 4 36 15 12 11 22 16 22 10 0 -6 5 -8 10 -5 6 4 8 11 5 16 -4 5 1 10 9 10
17 2 33 5 41 9 3 1 9 3 15 4 5 0 17 8 27 16 20 16 115 64 151 74 12 4 22 12
22 17 0 5 7 9 16 9 8 0 13 4 10 9 -4 5 3 7 14 4 16 -4 19 -2 13 13 -5 13 -3
16 10 11 11 -4 18 1 22 14 4 10 12 19 19 19 7 0 22 11 35 26 15 17 28 23 41
19 16 -5 19 -3 13 11 -4 12 -3 15 5 10 7 -4 12 -2 12 3 0 6 6 11 13 11 8 0 18
10 24 23 6 13 27 34 47 47 20 14 36 29 36 33 0 5 -5 5 -12 1 -7 -4 -8 -3 -4 4
4 6 13 9 21 5 11 -4 15 2 15 23 0 15 3 24 7 21 9 -9 34 13 27 24 -3 5 1 9 8 9
20 0 80 61 74 75 -2 7 4 21 15 31 11 10 17 24 15 31 -3 7 -2 13 3 13 15 0 51
37 51 54 0 9 5 16 11 16 6 0 9 6 6 14 -3 8 5 25 17 38 23 23 42 65 38 81 -2 5
11 31 28 58 17 28 28 54 26 58 -3 4 1 17 9 27 8 10 15 33 15 50 0 33 26 94 40
94 5 0 8 30 6 68 -1 37 3 73 8 81 9 12 8 13 -3 6 -15 -9 -10 5 13 34 6 8 12
41 14 75 6 140 7 156 12 156 3 0 5 16 5 35 0 19 -3 35 -7 35 -3 0 -3 12 1 27
4 16 4 43 0 62 -5 20 -3 43 3 54 5 10 8 28 5 38 -3 10 -1 19 4 19 6 0 6 7 1
17 -5 10 -10 63 -11 118 -1 55 -2 137 -4 182 -1 44 0 80 3 78 3 -2 5 8 5 21 0
13 -4 24 -9 24 -6 0 -5 5 0 10 6 6 9 32 6 59 -2 27 0 57 6 67 7 13 6 22 -4 32
-10 9 -12 22 -7 36 4 11 6 37 6 56 -5 129 -4 278 2 293 4 10 4 28 -1 40 -5 12
-7 51 -4 87 3 36 2 66 -2 68 -4 2 -3 15 3 28 5 14 7 35 4 47 -8 33 -12 146 -6
152 2 3 5 92 6 198 0 106 4 198 9 205 4 6 4 12 -1 12 -10 0 -10 427 0 457 5
12 3 24 -3 28 -6 3 -7 11 -4 17 6 9 17 205 14 243 -1 8 -7 153 -10 210 0 6 1
47 3 93 2 45 0 85 -5 88 -4 3 -5 10 -2 16 4 6 8 46 8 89 1 42 4 81 8 84 4 4 3
16 -2 26 -6 11 -6 27 -1 41 6 15 5 31 -2 43 -7 14 -7 20 1 23 7 2 12 10 12 17
0 7 4 15 10 17 5 2 6 17 1 40 -6 27 -5 40 6 51 11 11 12 20 5 32 -6 12 -5 26
4 43 7 14 11 29 8 34 -3 4 0 8 5 8 6 0 11 15 11 33 0 21 7 38 20 47 12 9 16
17 9 21 -15 9 -1 49 17 49 13 0 18 12 15 33 0 4 3 7 7 7 5 0 15 25 22 56 8 32
20 59 29 62 21 8 41 28 41 41 0 6 4 11 9 11 5 0 21 24 37 54 16 30 31 50 35
44 5 -8 19 26 19 47 0 2 16 20 35 40 23 23 41 32 52 28 10 -4 14 -2 9 5 -8 14
22 32 54 32 6 0 10 7 10 16 0 8 5 12 10 9 6 -4 28 12 51 34 22 23 46 41 54 41
8 0 17 5 21 12 5 7 3 8 -7 3 -11 -7 -12 -6 -2 7 7 8 27 15 44 16 17 0 48 10
70 21 21 11 39 18 39 14 0 -4 5 -2 12 5 7 7 34 12 61 12 26 0 46 4 43 8 -2 4
0 14 5 22 7 10 12 11 15 4 3 -7 14 -10 24 -7 13 3 20 0 20 -8 1 -10 5 -8 15 5
12 16 26 18 87 17 40 -2 120 -4 178 -6 66 -1 106 -7 108 -14 2 -6 9 -8 14 -5
6 4 17 -1 25 -11 13 -18 13 -18 13 0 0 18 2 17 16 -3 9 -13 22 -21 29 -18 7 2
21 -2 32 -9 10 -8 26 -15 36 -15 21 0 49 -24 40 -34 -4 -3 8 -6 25 -6 18 0 32
-5 32 -11 0 -5 4 -7 10 -4 14 9 68 -22 86 -50 9 -14 20 -22 25 -19 5 3 9 -5 9
-16 0 -16 5 -20 15 -16 15 5 65 -33 65 -51 0 -5 16 -18 35 -29 19 -10 35 -22
35 -26 0 -5 18 -27 41 -50 22 -23 41 -46 42 -52 1 -6 10 -17 20 -26 9 -8 19
-26 22 -39 2 -13 12 -32 20 -41 9 -10 17 -27 18 -39 1 -11 6 -21 12 -21 16 0
35 -37 29 -55 -3 -8 -1 -15 5 -15 13 0 45 -69 37 -77 -3 -3 -1 -13 4 -22 17
-32 22 -103 8 -112 -9 -6 -9 -9 -1 -9 16 0 40 -73 25 -78 -7 -2 -8 -11 -2 -28
6 -15 6 -24 0 -24 -6 0 -6 -9 0 -25 6 -15 6 -43 1 -72 -5 -25 -8 -51 -6 -57
10 -31 13 -96 5 -101 -5 -3 -7 -12 -3 -20 3 -9 -1 -22 -8 -31 -9 -11 -10 -17
-1 -23 11 -7 15 -92 8 -188 -2 -35 0 -53 8 -53 8 0 8 -2 0 -8 -8 -4 -11 -38
-9 -97 1 -49 -2 -98 -7 -107 -5 -11 -5 -18 1 -18 9 0 7 -93 -3 -186 -2 -16 1
-35 7 -42 7 -9 7 -20 -1 -37 -7 -16 -8 -35 -2 -57 6 -18 7 -42 3 -53 -5 -18
-14 -252 -13 -345 1 -19 -2 -51 -5 -71 -5 -30 -10 -36 -26 -32 -10 3 -19 1
-19 -5 0 -16 -31 -23 -46 -11 -11 9 -14 7 -14 -10 0 -12 -4 -20 -9 -16 -5 3
-13 1 -16 -5 -5 -8 -11 -7 -21 1 -11 9 -14 9 -14 0 0 -7 -5 -9 -11 -6 -12 8
-66 -12 -91 -33 -13 -11 -18 -11 -18 -3 0 8 -7 10 -21 6 -12 -4 -29 -8 -38
-10 -9 -1 -15 -8 -14 -13 2 -6 -3 -9 -10 -6 -7 2 -23 -4 -36 -15 -14 -12 -32
-18 -47 -15 -13 2 -24 0 -24 -5 0 -5 -13 -14 -30 -20 -16 -5 -30 -8 -30 -5 0
3 -7 -2 -16 -10 -8 -9 -21 -16 -29 -16 -7 0 -15 -5 -17 -11 -2 -5 -17 -12 -33
-13 -45 -5 -85 -17 -85 -27 0 -5 -19 -21 -42 -36 -23 -16 -55 -42 -71 -60 -15
-17 -48 -40 -72 -50 -25 -10 -45 -22 -45 -26 0 -12 -27 -37 -32 -31 -3 2 -19
-11 -36 -30 -17 -20 -42 -38 -56 -42 -17 -4 -23 -11 -19 -22 4 -9 2 -13 -4 -9
-6 4 -22 -8 -37 -26 -23 -27 -28 -29 -37 -17 -8 11 -9 8 -5 -13 4 -15 3 -27
-2 -27 -16 0 -72 -57 -72 -72 0 -9 -9 -18 -20 -21 -11 -3 -20 -14 -20 -24 0
-11 -11 -29 -25 -41 -14 -12 -25 -27 -25 -32 0 -6 -4 -16 -10 -23 -5 -7 -27
-34 -49 -62 -22 -27 -52 -65 -67 -83 -19 -23 -24 -39 -20 -56 4 -16 0 -30 -10
-40 -8 -9 -12 -16 -8 -16 4 0 -5 -10 -19 -23 -14 -12 -29 -37 -32 -57 -3 -19
-9 -37 -14 -40 -4 -3 -13 -24 -19 -48 -7 -23 -18 -42 -23 -42 -6 0 -9 -6 -6
-14 3 -7 -7 -51 -23 -97 -34 -103 -42 -134 -45 -179 -1 -19 -7 -46 -14 -59 -8
-14 -9 -21 -2 -17 17 11 13 -20 -4 -34 -9 -7 -13 -20 -10 -28 3 -9 0 -19 -7
-23 -9 -6 -9 -13 0 -33 12 -26 6 -93 -10 -102 -5 -3 -4 -12 3 -20 9 -11 8 -15
-6 -20 -9 -4 -12 -10 -7 -13 10 -6 24 -150 23 -241 0 -32 6 -64 14 -77 10 -15
11 -23 3 -25 -7 -3 -8 -9 -3 -18 13 -22 14 -53 1 -69 -7 -9 -7 -12 0 -8 6 3
18 -25 32 -76 39 -150 45 -172 52 -177 4 -3 13 -33 20 -67 8 -34 17 -60 21
-57 8 4 23 -26 20 -40 -1 -5 6 -17 16 -28 10 -11 17 -23 17 -27 -1 -3 2 -16 7
-29 5 -13 9 -27 9 -30 0 -4 9 -15 20 -25 11 -9 20 -24 20 -32 0 -9 4 -14 9
-11 10 6 31 -37 31 -65 0 -11 13 -34 30 -52 21 -23 26 -34 17 -40 -7 -5 -3 -6
11 -2 12 4 22 2 22 -4 0 -6 9 -19 21 -30 12 -11 18 -24 14 -30 -3 -6 -1 -11 5
-11 5 0 23 -14 38 -31 50 -58 59 -66 71 -70 7 -3 13 -17 15 -33 2 -21 11 -32
34 -41 17 -8 37 -26 45 -42 9 -15 18 -27 21 -25 13 5 29 2 23 -5 -4 -4 10 -15
30 -24 21 -10 34 -18 29 -19 -9 0 13 -21 65 -63 18 -14 25 -27 22 -41 -3 -15
-2 -17 4 -8 8 10 15 8 36 -9 16 -12 24 -26 20 -32 -4 -7 1 -6 10 2 11 9 17 10
17 2 0 -6 9 -11 20 -11 11 0 20 -7 20 -15 0 -13 55 -35 88 -35 6 0 11 -3 11
-7 -4 -23 3 -35 16 -29 8 3 15 2 15 -2 0 -4 14 -16 30 -25 17 -10 30 -15 30
-11 0 5 5 3 11 -3 6 -6 18 -9 27 -6 10 4 13 2 8 -5 -4 -8 0 -12 11 -12 15 0
16 -2 3 -11 -12 -9 -11 -10 5 -4 35 11 40 10 39 -7 -1 -11 4 -14 13 -11 8 3
18 0 23 -6 4 -7 24 -13 44 -14 20 -1 36 -5 36 -10 0 -4 4 -5 10 -2 5 3 20 0
32 -6 13 -7 33 -13 46 -14 13 0 26 -6 30 -11 10 -16 53 -37 60 -30 3 3 0 6 -6
6 -7 0 -12 4 -12 9 0 6 15 4 33 -4 17 -7 63 -16 101 -19 37 -4 76 -10 85 -16
18 -9 46 -8 57 3 4 3 16 1 28 -6 11 -6 50 -13 86 -14 36 -2 70 -3 75 -4 6 -1
48 2 95 6 47 4 114 8 150 11 36 2 85 6 110 8 25 3 54 6 65 6 10 1 25 6 32 12
7 6 39 12 71 13 31 2 67 3 79 4 14 1 20 6 18 14 -4 8 6 13 27 14 18 1 43 3 56
4 12 1 22 5 22 10 0 5 9 9 20 9 11 0 20 4 20 9 0 16 93 56 98 43 2 -7 8 -12
13 -12 6 0 8 4 5 9 -3 5 1 15 10 22 13 10 17 10 26 -2 8 -11 9 -11 4 3 -3 10
-1 20 4 23 6 4 10 2 10 -4 0 -15 27 -7 57 17 15 12 31 23 35 23 4 1 14 2 21 3
7 1 11 12 9 26 -2 19 -1 22 7 10 8 -12 11 -12 17 3 4 10 13 16 20 13 8 -3 14
-1 14 5 0 6 7 9 14 6 9 -4 17 2 21 14 4 10 11 17 16 14 5 -4 9 -1 9 4 0 6 9
11 20 11 31 0 67 20 81 46 7 13 18 24 26 24 7 0 13 5 13 10 0 6 6 9 13 8 6 -2
11 3 9 10 -1 6 7 12 18 12 11 0 20 6 20 14 0 8 13 24 29 37 16 13 27 27 25 31
-3 4 4 8 15 8 12 0 21 6 21 13 0 8 11 20 25 27 18 10 22 17 14 26 -7 8 -7 14
1 19 5 3 10 1 10 -5 0 -6 5 -8 10 -5 6 4 8 11 5 16 -4 5 1 9 9 9 8 0 20 8 25
18 6 9 11 14 11 10 0 -5 9 1 20 12 12 12 18 25 15 29 -4 8 31 24 48 22 4 -1 7
6 7 14 0 8 10 26 23 41 12 14 22 29 23 32 2 20 17 41 25 36 5 -3 16 11 24 30
9 20 20 36 26 36 5 0 7 5 4 10 -3 5 -1 10 4 10 6 0 11 5 11 12 0 6 8 20 17 30
9 10 17 26 18 36 4 29 17 52 27 46 5 -3 8 0 7 7 -2 14 10 50 20 59 14 12 41
70 41 88 0 10 11 40 24 65 14 25 22 48 18 52 -3 3 2 3 13 -1 18 -7 19 -6 5 11
-8 10 -10 16 -4 12 7 -4 14 0 17 7 3 8 1 17 -6 20 -9 3 -9 5 1 5 9 1 10 12 6
40 -4 24 -2 41 5 45 6 4 9 12 6 17 -4 5 -1 9 5 9 7 0 10 6 7 14 -3 8 2 16 14
19 10 3 19 11 19 19 0 10 -3 9 -10 -2 -8 -12 -10 -11 -10 8 0 12 5 22 11 22 6
0 9 7 5 15 -3 8 -2 15 2 15 4 0 8 22 9 49 0 28 8 64 16 80 9 17 12 31 8 31 -4
0 -6 15 -4 33 12 98 -1 527 -17 556 -6 12 -10 29 -9 39 3 31 -1 43 -11 37 -5
-3 -10 -1 -10 4 0 6 5 11 10 11 6 0 10 5 10 11 0 5 -4 8 -8 5 -13 -8 -40 55
-36 82 2 12 -1 22 -7 22 -6 0 -8 7 -5 16 3 9 -4 25 -19 40 -26 26 -32 44 -15
44 15 0 12 19 -4 36 -8 8 -20 39 -27 69 -7 30 -18 60 -26 66 -7 6 -13 18 -13
26 0 8 -9 28 -21 44 -11 16 -17 33 -14 39 3 5 1 10 -5 10 -16 0 -40 26 -32 35
4 3 -1 11 -11 16 -9 6 -15 15 -11 20 3 5 -6 25 -20 43 -14 19 -22 36 -19 40 4
3 -1 6 -11 6 -9 0 -14 4 -11 10 3 5 2 10 -4 10 -11 0 -47 60 -43 72 1 4 -5 5
-13 2 -9 -4 -15 0 -15 8 0 8 -11 25 -25 38 -14 13 -25 32 -25 42 0 10 -4 18
-10 18 -10 0 -80 69 -80 79 0 4 -14 15 -30 25 -17 9 -28 22 -25 27 4 5 -1 9
-9 9 -8 0 -25 10 -37 23 -12 12 -18 16 -14 8 5 -9 -2 -7 -18 5 -15 10 -27 23
-27 27 0 5 -6 15 -12 22 -7 8 -18 20 -24 27 -18 21 -66 53 -78 53 -6 0 -21 12
-33 26 -13 15 -35 29 -50 32 -16 3 -40 17 -54 30 -23 22 -59 40 -82 42 -4 0
-12 6 -16 14 -5 7 -14 10 -20 6 -7 -4 -22 4 -36 19 -13 14 -29 26 -35 26 -5 0
-10 5 -10 11 0 6 -7 9 -15 5 -8 -3 -15 0 -15 7 0 8 -3 8 -9 -2 -7 -11 -13 -10
-35 4 -14 10 -26 20 -26 24 0 3 -11 11 -25 18 -14 6 -23 7 -19 2 3 -5 1 -9 -5
-9 -5 0 -11 5 -13 10 -2 6 -30 14 -63 17 -33 3 -63 12 -68 19 -4 7 -14 11 -22
7 -8 -3 -27 3 -42 12 -16 11 -28 14 -30 8 -4 -12 -41 -5 -61 11 -31 26 -52 51
-52 63 0 7 -5 13 -11 13 -11 0 -7 79 6 99 3 6 1 11 -4 11 -6 0 -11 7 -11 15 0
8 5 15 11 15 6 0 7 5 2 13 -4 6 -6 80 -4 162 5 216 4 372 -3 400 -5 18 -2 25
7 25 10 0 13 8 10 24 -3 13 0 27 6 30 6 4 11 13 11 19 0 7 -4 6 -11 -3 -8 -12
-10 -8 -6 15 3 17 9 39 13 49 5 12 4 17 -3 13 -11 -7 -12 141 0 160 4 6 3 14
-1 17 -5 3 -8 39 -7 81 1 41 -2 75 -7 75 -5 0 -6 5 -3 10 4 6 12 7 18 3 9 -5
9 -3 0 8 -7 9 -9 20 -3 29 5 8 7 24 4 35 -8 36 -10 236 -1 242 4 2 3 11 -3 18
-7 8 -8 21 -3 32 10 22 10 44 0 61 -5 6 -6 16 -2 22 3 5 1 37 -6 72 -6 35 -13
81 -15 103 -3 22 -9 53 -14 69 -6 16 -10 53 -10 82 0 30 -4 54 -9 54 -11 0
-26 39 -23 58 2 6 -5 12 -14 12 -10 0 -14 5 -11 15 4 8 2 17 -3 20 -4 3 -11
23 -15 45 -4 21 -20 56 -36 76 -16 20 -29 43 -29 50 0 7 -3 14 -8 16 -4 2 -15
19 -24 38 -22 44 -37 66 -65 98 -13 14 -23 31 -23 39 0 17 -54 99 -84 128 -12
11 -29 32 -39 48 -10 15 -27 27 -38 27 -12 0 -23 8 -26 18 -2 10 -18 26 -34
36 -16 9 -29 21 -29 26 0 15 -50 60 -66 60 -8 0 -13 4 -10 8 7 11 -22 35 -64
52 -19 8 -40 21 -47 30 -7 8 -13 11 -13 7 0 -5 -12 5 -26 22 -14 17 -32 31
-39 31 -7 0 -25 10 -41 22 -15 13 -33 23 -39 23 -23 2 -85 36 -85 47 0 9 -3 9
-11 1 -7 -7 -32 1 -87 28 -46 24 -90 39 -112 39 -20 0 -41 5 -47 11 -6 6 -21
12 -34 14 -13 2 -44 9 -69 15 -25 6 -70 13 -100 16 -30 3 -71 9 -90 13 -19 4
-45 7 -57 6 -13 -1 -23 3 -23 8 0 5 -15 6 -37 2 -21 -4 -42 -7 -48 -7 -57 6
-155 5 -155 -2 0 -4 -9 -6 -20 -3 -11 3 -17 1 -14 -4 3 -6 -18 -9 -53 -8 -33
1 -73 -5 -95 -14 -20 -8 -39 -13 -42 -9 -3 3 -6 0 -6 -7 0 -7 -7 -11 -15 -8
-8 4 -17 2 -21 -4 -3 -6 -20 -9 -38 -8 -38 2 -86 -10 -86 -22 0 -5 -11 -9 -24
-9 -13 0 -35 -9 -49 -20 -14 -11 -33 -20 -42 -20 -10 0 -26 -10 -36 -21 -10
-12 -29 -21 -43 -21 -13 0 -36 -11 -51 -24 -16 -13 -34 -24 -41 -24 -7 0 -20
-7 -28 -16 -9 -8 -20 -13 -25 -10 -5 4 -19 -7 -30 -23 -12 -16 -38 -35 -59
-42 -20 -6 -41 -18 -45 -25 -4 -8 -15 -14 -22 -14 -8 0 -15 -6 -15 -14 0 -8
-9 -18 -20 -21 -11 -3 -20 -11 -20 -16 0 -5 -7 -9 -15 -9 -8 0 -15 -5 -15 -10
0 -6 -11 -16 -25 -22 -13 -6 -27 -19 -30 -30 -4 -10 -10 -18 -15 -18 -11 0
-80 -70 -80 -81 0 -5 -13 -23 -30 -39 -16 -16 -30 -34 -30 -40 0 -6 -7 -13
-15 -16 -8 -4 -15 -12 -15 -19 0 -8 -11 -22 -25 -33 -14 -11 -25 -26 -25 -34
0 -13 -24 -48 -60 -88 -23 -26 -50 -80 -50 -100 0 -11 -8 -24 -17 -29 -12 -7
-13 -11 -5 -11 10 0 10 -4 -2 -16 -9 -8 -16 -22 -16 -30 0 -8 -4 -14 -10 -14
-5 0 -10 -9 -10 -19 0 -11 -5 -23 -10 -26 -6 -3 -15 -26 -21 -51 -6 -24 -15
-44 -20 -44 -5 0 -9 -6 -9 -14 0 -8 -6 -21 -13 -28 -18 -17 -27 -57 -16 -63
11 -7 6 -44 -7 -53 -5 -4 -10 -27 -12 -52 -3 -45 -20 -101 -33 -110 -4 -3 -10
-23 -13 -45 -3 -22 -8 -56 -12 -76 -3 -21 -1 -40 5 -43 6 -4 7 -16 0 -34 -5
-15 -8 -39 -6 -52 2 -14 1 -37 -4 -52 -4 -16 -4 -28 0 -28 4 0 6 -73 4 -162
-1 -90 -2 -170 -2 -178 0 -8 -1 -62 -2 -120 -1 -58 -1 -126 -2 -152 0 -28 -4
-48 -11 -48 -7 0 -6 -3 1 -8 7 -5 13 -19 13 -33 0 -13 -1 -154 -3 -314 -2
-176 0 -295 6 -302 6 -9 6 -13 -2 -13 -7 0 -10 -4 -7 -9 4 -5 0 -11 -6 -14
-10 -3 -10 -11 -3 -33 6 -16 10 -69 8 -119 -4 -108 -3 -93 -1 -185 1 -41 -1
-92 -5 -112 -3 -21 -3 -39 1 -42 8 -5 6 -254 -2 -294 -3 -15 -2 -34 3 -41 6
-9 6 -22 0 -34 -7 -12 -7 -22 0 -31 6 -7 8 -16 4 -19 -3 -4 -7 -125 -9 -269
-1 -145 -3 -264 -4 -265 -2 -4 -2 -72 0 -75 8 -10 7 -166 -1 -180 -5 -10 -6
-18 -2 -18 12 0 6 -408 -8 -540 -1 -8 -6 -20 -11 -27 -5 -6 -6 -22 -3 -36 4
-14 2 -27 -3 -31 -5 -3 -17 -41 -27 -85 -10 -44 -22 -78 -26 -76 -12 8 -30
-22 -23 -39 3 -9 1 -16 -4 -16 -6 0 -20 -21 -31 -46 -12 -27 -29 -48 -41 -51
-11 -3 -20 -14 -20 -24 0 -10 -11 -30 -25 -45 -14 -15 -25 -33 -25 -40 0 -8
-6 -11 -17 -7 -10 4 -14 2 -10 -4 4 -6 0 -14 -8 -17 -8 -3 -14 -10 -13 -15 2
-5 1 -8 -2 -7 -9 2 -60 -52 -60 -64 0 -6 -4 -9 -9 -6 -4 3 -21 -6 -37 -19 -16
-14 -32 -25 -36 -25 -5 0 -8 -7 -8 -15 0 -8 -9 -15 -20 -15 -11 0 -20 -5 -20
-11 0 -6 -7 -9 -15 -5 -8 3 -15 2 -15 -3 0 -5 -11 -12 -25 -15 -14 -4 -23 -11
-20 -16 3 -6 1 -11 -4 -11 -26 -3 -30 -4 -37 -12 -4 -4 -16 -7 -26 -7 -10 0
-18 -4 -18 -9 0 -12 -86 -35 -99 -26 -6 3 -11 -2 -12 -12 0 -10 -3 -13 -6 -5
-7 19 -23 14 -16 -5 6 -15 4 -16 -9 -5 -12 10 -17 10 -20 1 -5 -15 -48 -20
-48 -6 0 5 -5 5 -13 -1 -7 -6 -26 -11 -42 -11 -17 0 -39 -2 -50 -4 -11 -2 -23
1 -27 7 -6 8 -11 7 -17 -3 -8 -12 -12 -12 -25 -2 -11 9 -16 10 -16 2 0 -14
-60 -14 -97 0 -17 6 -29 7 -31 1 -3 -9 -47 -3 -85 13 -10 4 -26 8 -35 9 -26 2
-163 46 -195 63 -15 8 -32 11 -37 8 -6 -3 -10 -1 -10 5 0 6 -12 15 -26 20 -15
6 -38 19 -53 29 -14 10 -38 21 -53 25 -15 3 -30 15 -33 26 -3 11 -9 20 -13 20
-4 0 -18 9 -32 20 -21 17 -23 21 -10 30 12 9 12 11 -5 8 -17 -3 -55 23 -55 37
0 3 -25 30 -55 59 -35 33 -53 59 -50 68 4 9 -5 22 -20 34 -14 10 -25 24 -25
31 0 6 -5 13 -10 15 -6 2 -12 14 -13 27 -1 12 -14 33 -28 46 -20 16 -25 25
-16 34 8 8 4 16 -12 30 -14 12 -21 27 -18 35 8 19 -10 75 -31 99 -15 16 -14
17 1 11 13 -5 16 -2 11 10 -3 9 -2 16 4 16 14 0 3 36 -14 51 -17 14 -18 46 -1
52 7 3 5 6 -5 6 -10 1 -18 9 -19 19 0 9 -2 28 -5 41 -2 14 0 39 6 57 9 26 8
39 -5 64 -9 18 -12 29 -7 26 7 -4 9 8 7 31 -1 21 2 47 7 57 8 14 6 21 -6 28
-16 9 -22 49 -9 62 9 9 11 86 3 86 -4 0 -3 24 0 53 4 28 5 53 1 54 -3 2 -5 40
-3 85 1 46 2 148 1 228 -4 295 -4 311 12 321 12 7 11 9 -2 9 -15 0 -16 12 -14
88 1 48 5 97 9 109 4 12 3 24 -2 27 -5 3 -7 33 -5 68 4 88 5 151 3 163 -4 24
-2 93 4 113 4 11 3 23 -2 26 -8 5 -6 160 2 199 2 9 1 17 -3 17 -4 0 -8 18 -9
40 -2 23 2 40 8 40 5 0 9 3 9 8 -4 26 3 62 11 57 12 -7 62 24 55 35 -6 9 56
41 67 34 4 -3 8 0 8 5 0 6 18 14 40 17 22 4 40 12 40 18 0 13 46 36 71 36 10
0 21 5 24 10 3 6 15 10 27 10 11 0 50 21 87 48 75 54 93 65 139 86 17 8 32 20
32 25 0 6 9 11 20 11 11 0 20 5 20 11 0 5 5 7 10 4 6 -4 31 16 55 43 25 28 56
53 70 56 13 3 27 15 30 26 3 11 12 20 19 20 7 0 19 11 26 25 12 22 28 30 53
26 4 0 7 6 7 14 0 8 5 15 10 15 6 0 10 8 10 17 0 9 3 13 7 10 3 -4 12 2 20 13
8 11 20 20 27 20 12 0 27 23 27 40 0 3 7 9 15 13 8 4 14 15 14 23 0 10 6 13
19 9 19 -6 47 18 37 33 -3 5 13 25 34 45 22 20 40 41 40 47 0 5 4 10 9 10 5 0
12 8 15 18 4 10 20 34 36 52 17 19 30 40 30 47 0 7 5 13 11 13 5 0 8 3 6 8 -8
12 12 54 23 47 5 -3 10 1 10 9 0 9 4 16 9 16 9 0 13 8 35 75 7 22 16 38 20 35
13 -10 64 120 53 137 -3 5 7 23 23 41 16 18 32 48 35 65 4 18 11 37 17 43 5 7
8 16 7 20 -4 25 2 45 13 38 7 -5 8 -3 3 6 -18 29 -12 108 13 180 8 25 12 52
17 140 3 47 8 91 10 98 2 6 1 12 -3 12 -5 0 -5 30 -1 68 4 37 3 87 -2 112 -7
31 -7 46 1 48 5 2 8 8 4 13 -3 5 1 9 8 9 10 0 10 2 1 8 -14 9 -17 87 -10 305
2 83 0 147 -5 147 -5 0 -7 4 -4 8 7 12 10 125 3 142 -4 8 -8 29 -9 45 -2 17
-10 35 -18 42 -8 7 -10 13 -5 13 6 0 5 4 -2 8 -7 4 -14 27 -15 50 -2 23 -6 42
-10 42 -5 0 -8 7 -8 15 0 8 -9 20 -20 27 -11 7 -20 18 -20 24 0 15 -91 108
-119 124 -12 6 -21 18 -21 26 0 8 -4 13 -8 10 -5 -3 -25 6 -45 19 -20 14 -39
25 -42 25 -3 0 -22 10 -43 23 -21 14 -70 29 -114 37 -43 7 -76 16 -73 20 2 3
-28 6 -68 4 -45 -1 -82 3 -98 12 -34 17 -69 76 -58 96 5 8 5 28 0 44 -4 16 -5
38 -1 49 4 11 5 24 2 30 -3 5 -7 24 -7 43 -2 25 1 32 12 28 11 -5 12 2 7 32
-10 54 -11 342 0 342 4 0 5 8 0 18 -9 21 -12 122 -2 122 3 0 3 14 -2 31 -5 18
-7 36 -4 40 3 5 0 9 -5 9 -6 0 -10 3 -10 8 4 23 -3 52 -14 64 -7 7 -16 21 -20
31 -3 9 -11 17 -16 17 -5 0 -13 9 -16 20 -3 11 -11 20 -16 20 -5 0 -22 13 -37
30 -15 16 -34 31 -42 32 -8 2 -17 6 -20 10 -3 4 -27 9 -53 11 -26 3 -53 10
-61 16 -11 9 -20 10 -36 1 -12 -6 -34 -9 -49 -5 -21 4 -30 2 -34 -9 -4 -9 -12
-13 -20 -10 -7 2 -28 -9 -45 -26 -18 -17 -37 -28 -43 -24 -8 4 -9 -1 -4 -17 4
-13 4 -21 0 -16 -5 4 -17 -1 -28 -10 -10 -10 -22 -17 -26 -15 -3 1 -6 -1 -6
-5 -1 -5 -10 -26 -22 -48 -20 -39 -32 -91 -34 -150 -1 -34 9 -114 16 -126 3
-4 1 -11 -5 -14 -14 -8 -11 -155 2 -172 7 -9 7 -13 0 -13 -7 0 -9 -34 -7 -97
2 -53 -1 -105 -6 -115 -7 -12 -6 -18 1 -18 7 0 10 -16 7 -45 -2 -25 -1 -45 3
-45 10 0 0 -49 -11 -56 -5 -3 -3 -13 3 -24 10 -16 8 -22 -15 -40 -15 -12 -26
-26 -24 -32 1 -6 -9 -14 -23 -17 -19 -6 -832 -7 -887 -2 -7 0 -13 7 -13 15 0
8 -7 16 -15 19 -8 4 -18 21 -23 39 -8 30 -7 168 2 278 2 25 0 50 -5 55 -4 6
-4 28 1 49 5 21 7 58 5 82 -2 25 1 44 6 44 6 0 7 6 2 13 -4 6 -9 75 -9 152 -2
104 -6 150 -19 178 -9 21 -13 48 -9 59 4 14 2 18 -5 14 -6 -4 -11 -3 -11 2 0
5 -10 12 -21 15 -16 4 -20 11 -16 27 4 16 2 20 -9 16 -9 -3 -25 5 -38 19 -13
14 -26 25 -30 25 -4 0 -14 7 -22 15 -9 8 -24 15 -35 15 -11 0 -18 4 -15 9 3 4
-11 9 -32 10 -20 0 -57 2 -81 4 -26 2 -49 -2 -57 -10z m6715 -5099 c6 4 11 2
11 -4 0 -6 5 -8 10 -5 6 3 10 0 10 -7 0 -9 3 -9 10 2 7 12 12 12 22 2 6 -6 25
-12 40 -12 15 0 28 -4 28 -9 0 -6 16 -7 37 -4 26 4 34 3 29 -5 -5 -8 4 -12 27
-12 20 0 44 -8 57 -20 13 -12 30 -18 37 -16 7 3 13 -2 13 -11 0 -11 3 -13 13
-5 15 12 57 5 72 -12 10 -11 46 -30 78 -40 11 -3 15 -11 11 -18 -5 -8 -2 -9
11 -4 20 7 55 -18 55 -40 0 -8 6 -11 14 -8 18 7 89 -40 78 -51 -4 -4 -1 -6 7
-3 8 2 28 -8 44 -24 17 -15 34 -25 39 -22 4 3 9 0 9 -5 1 -6 2 -17 3 -23 1 -7
11 -12 23 -11 11 1 27 -4 33 -12 7 -8 17 -15 22 -15 13 0 33 -21 41 -42 3 -10
13 -18 22 -18 8 0 15 -3 15 -7 0 -10 67 -83 72 -78 2 2 8 -7 15 -21 7 -15 7
-24 1 -24 -6 0 4 -12 21 -27 17 -15 31 -36 31 -45 0 -22 18 -54 46 -84 12 -13
28 -36 35 -53 8 -17 17 -31 21 -31 5 0 8 -8 8 -19 0 -10 6 -24 13 -30 8 -6 19
-36 26 -66 7 -30 18 -58 25 -62 18 -11 33 -62 31 -105 -1 -21 1 -38 6 -38 5 0
9 -6 9 -14 0 -7 6 -26 14 -40 7 -15 12 -40 10 -56 -2 -17 0 -30 5 -30 4 0 8
-6 9 -12 0 -7 3 -25 5 -40 2 -16 0 -28 -6 -28 -8 0 -7 -4 0 -11 12 -12 6 -39
-11 -52 -7 -5 -5 -11 7 -18 18 -11 23 -54 7 -64 -7 -4 -5 -14 4 -27 11 -15 12
-26 5 -39 -5 -10 -7 -32 -4 -48 3 -16 1 -33 -5 -36 -6 -3 -10 -18 -9 -33 1
-15 -3 -39 -9 -54 -6 -15 -9 -35 -6 -43 4 -8 2 -15 -4 -15 -5 0 -9 -6 -9 -12
2 -30 -16 -118 -24 -118 -14 0 -11 -28 4 -33 8 -4 7 -6 -3 -6 -9 -1 -16 -11
-17 -22 -1 -12 -11 -31 -21 -43 -18 -19 -33 -63 -37 -109 -1 -9 -11 -28 -23
-40 -12 -13 -22 -31 -22 -41 0 -9 -4 -15 -9 -12 -12 8 -34 -21 -26 -34 4 -6 1
-17 -5 -25 -9 -11 -9 -15 -1 -15 6 0 3 -8 -6 -18 -10 -11 -21 -17 -24 -16 -4
2 -12 -3 -19 -11 -8 -9 -8 -15 -2 -15 6 0 -3 -13 -20 -30 -16 -17 -37 -30 -46
-30 -15 0 -15 -2 -2 -10 13 -9 13 -12 -2 -24 -10 -7 -18 -18 -18 -25 0 -6 -6
-11 -14 -11 -7 0 -23 -13 -36 -30 -13 -16 -29 -30 -36 -30 -8 0 -14 -7 -14
-16 0 -8 -4 -12 -10 -9 -5 3 -10 2 -10 -4 0 -6 -7 -8 -16 -4 -11 4 -15 1 -12
-13 2 -11 -2 -18 -9 -16 -8 1 -13 -8 -13 -20 0 -17 -11 -28 -40 -42 -22 -10
-37 -23 -34 -27 3 -5 -1 -9 -9 -9 -7 0 -24 -11 -37 -25 -13 -14 -32 -25 -42
-25 -10 0 -18 -4 -18 -9 0 -5 -15 -15 -34 -22 -19 -7 -34 -17 -33 -23 1 -6 -9
-10 -23 -8 -20 2 -22 1 -10 -7 12 -9 11 -11 -8 -11 -13 0 -35 -9 -50 -20 -20
-16 -27 -18 -34 -8 -6 8 -7 4 -3 -11 6 -21 5 -23 -15 -18 -20 5 -65 -14 -80
-34 -3 -4 -31 -10 -62 -13 -58 -6 -108 -21 -108 -31 0 -4 5 -3 12 1 7 4 8 3 4
-5 -4 -6 -22 -11 -39 -10 -18 0 -58 -2 -90 -6 -32 -4 -66 -8 -75 -9 -10 0 -20
-5 -23 -10 -4 -4 -16 -3 -27 3 -29 16 -42 14 -43 -6 -1 -17 -2 -17 -6 0 -4 14
-8 16 -19 6 -11 -9 -17 -9 -29 1 -8 7 -15 8 -15 2 0 -6 -26 -8 -67 -5 -94 7
-214 8 -238 3 -15 -4 -19 0 -17 12 2 10 -2 18 -8 18 -5 0 -10 -4 -10 -9 0 -5
-9 -7 -20 -4 -11 3 -20 12 -20 21 0 12 -3 13 -12 4 -18 -18 -51 -15 -44 3 4
11 -2 15 -24 15 -17 0 -30 5 -30 11 0 7 -10 9 -25 5 -17 -4 -25 -2 -25 7 0 7
-9 13 -19 13 -11 0 -17 -4 -15 -8 10 -16 -6 -7 -38 22 -18 16 -42 30 -55 30
-12 0 -25 5 -28 10 -3 6 -15 10 -26 10 -11 0 -18 4 -15 9 3 5 0 9 -7 8 -36 -1
-57 4 -52 13 3 6 -5 14 -19 20 -14 5 -26 13 -26 18 0 4 -16 14 -35 21 -19 7
-35 19 -35 27 0 8 -7 14 -15 14 -8 0 -15 5 -15 11 0 5 -4 7 -10 4 -5 -3 -10
-2 -10 4 0 6 -6 8 -13 5 -7 -2 -19 7 -27 20 -7 14 -17 23 -22 20 -4 -3 -8 3
-8 12 0 10 -3 14 -6 11 -11 -11 -64 33 -64 53 0 10 -9 22 -20 25 -26 8 -90 74
-90 92 0 7 -3 13 -8 13 -4 0 -12 10 -17 22 -6 13 -17 22 -24 20 -9 -2 -11 3
-6 15 12 32 10 37 -14 41 -13 2 -26 12 -28 23 -3 10 -10 19 -15 19 -5 0 -8 6
-6 12 3 7 -5 21 -16 31 -12 10 -16 16 -9 13 8 -5 8 0 0 18 -7 13 -15 22 -18
20 -4 -2 -10 6 -14 19 -4 12 -8 24 -9 27 -2 3 -6 17 -10 33 -5 15 -12 27 -16
27 -11 0 -25 40 -21 59 1 8 -2 10 -10 5 -8 -5 -10 -3 -4 6 5 8 2 18 -9 25 -18
14 -26 39 -31 95 -2 19 -4 36 -4 38 -1 1 -1 5 0 8 0 4 -5 11 -13 15 -11 7 -11
9 1 9 10 0 11 3 3 13 -6 7 -14 28 -17 47 -3 18 -8 37 -11 42 -3 4 0 8 5 8 6 0
11 10 10 23 0 12 -3 16 -6 10 -9 -24 -18 -13 -21 26 -1 22 2 42 8 46 6 4 7 12
3 18 -16 26 -19 96 -10 261 4 65 11 124 16 130 5 6 16 40 24 76 26 109 49 185
56 190 7 5 22 39 22 50 0 3 9 19 20 36 10 17 19 41 19 52 0 16 4 20 18 15 9
-3 14 -3 10 2 -4 4 1 20 12 35 11 16 20 34 20 42 0 15 40 78 40 63 1 -5 7 5
15 23 8 17 19 32 25 32 5 0 10 9 10 20 0 13 12 28 29 38 16 9 39 33 52 54 14
22 32 38 42 38 10 0 15 5 12 10 -3 6 -2 10 4 10 5 0 25 16 44 35 19 19 42 35
52 35 10 0 15 5 12 13 -7 18 7 40 27 43 16 2 46 28 46 39 0 4 7 13 15 21 12
12 15 12 15 2 1 -10 4 -9 13 2 7 8 26 21 42 29 17 7 37 17 45 22 8 5 22 12 30
16 8 4 17 9 20 13 11 14 104 60 121 60 9 0 24 6 31 13 7 8 24 12 36 11 12 -2
22 1 22 6 0 6 3 9 8 9 21 -4 32 3 33 19 0 9 3 12 5 7 5 -13 114 4 114 17 0 4
14 8 30 8 17 0 30 5 30 13 0 8 4 7 10 -3 7 -10 12 -12 18 -4 4 6 19 10 34 10
14 -1 25 1 22 5 -2 4 13 7 34 7 20 1 100 3 177 5 77 3 145 1 151 -4 7 -6 16
-3 24 6 10 12 15 13 20 4 4 -6 13 -8 19 -5z m-2214 -1314 c3 -5 1 -10 -4 -10
-6 0 -11 5 -11 10 0 6 2 10 4 10 3 0 8 -4 11 -10z m3305 -1730 c0 -5 -4 -10
-10 -10 -5 0 -10 5 -10 10 0 6 5 10 10 10 6 0 10 -4 10 -10z"/>
<path d="M8255 4039 c-4 -6 -13 -8 -20 -5 -7 2 -16 2 -20 -2 -4 -4 -37 -8 -73
-10 -37 -1 -79 -3 -93 -4 -15 0 -35 2 -45 7 -50 20 -144 2 -170 -33 -7 -9 -14
-12 -15 -7 -4 28 -21 -82 -25 -164 -3 -52 -10 -103 -15 -112 -11 -22 -12 -42
0 -35 18 12 5 -54 -14 -69 -11 -9 -14 -14 -7 -10 14 7 17 -11 2 -20 -12 -7
-14 -45 -2 -45 4 0 8 -9 8 -20 0 -11 -5 -20 -10 -20 -6 0 -5 -5 2 -12 7 -7 12
-17 12 -22 0 -6 -5 -4 -11 4 -8 11 -9 4 -6 -27 3 -24 2 -43 -1 -43 -4 0 -7
-29 -8 -64 0 -36 -6 -71 -12 -79 -7 -7 -9 -17 -6 -20 4 -3 2 -20 -4 -36 -7
-19 -7 -31 -1 -31 5 0 9 -9 9 -20 0 -11 -4 -20 -10 -20 -5 0 -7 -7 -4 -15 4
-8 1 -15 -5 -15 -12 0 -10 -27 2 -47 5 -8 3 -13 -5 -13 -10 0 -10 -2 1 -9 7
-5 10 -14 6 -21 -4 -6 -7 -43 -8 -82 0 -47 -4 -71 -13 -75 -9 -3 -10 -11 -3
-30 5 -14 7 -35 3 -46 -4 -14 -3 -18 7 -13 8 4 6 1 -4 -7 -21 -17 -15 -56 15
-99 18 -26 31 -30 56 -15 8 5 12 3 12 -7 0 -14 3 -14 20 -4 15 9 23 10 28 2 7
-11 62 -11 79 -1 5 3 15 2 23 -3 9 -5 19 -5 27 1 7 6 18 7 25 3 18 -11 48 -12
54 -2 8 12 21 10 39 -8 14 -15 14 -17 -1 -28 -15 -11 -15 -14 0 -28 18 -18 22
-33 6 -23 -7 4 -9 -4 -5 -24 4 -23 1 -31 -14 -36 -11 -3 -22 -13 -25 -21 -3
-8 -2 -13 3 -10 19 12 18 -42 -1 -59 -11 -9 -17 -23 -14 -31 3 -8 -1 -14 -10
-14 -12 0 -15 -7 -12 -30 3 -18 0 -31 -9 -34 -7 -3 -13 -14 -13 -24 0 -27 -29
-82 -43 -82 -8 0 -7 -3 2 -9 18 -11 5 -51 -17 -51 -15 0 -15 -2 -2 -10 8 -5
11 -10 5 -10 -5 0 -3 -5 5 -10 13 -8 12 -10 -2 -10 -12 0 -18 -8 -18 -25 0
-14 -4 -25 -9 -25 -9 0 -30 -62 -33 -97 -1 -7 -7 -13 -14 -13 -8 0 -10 -8 -6
-22 3 -14 2 -19 -6 -14 -7 4 -12 1 -12 -9 0 -10 5 -14 13 -10 6 4 3 -1 -7 -9
-11 -9 -17 -19 -13 -22 4 -4 2 -13 -4 -21 -6 -7 -8 -13 -3 -13 5 0 3 -4 -5 -9
-11 -7 -9 -12 10 -22 36 -19 49 -34 49 -57 0 -4 18 -7 40 -7 25 0 40 4 40 12
0 7 12 25 28 41 15 16 34 39 42 52 8 12 21 28 28 36 6 7 12 18 12 25 0 9 4 8
15 -1 12 -10 15 -10 15 3 0 8 -6 18 -12 20 -7 3 -2 6 12 6 18 1 21 4 13 12 -9
9 -6 17 13 32 14 10 23 22 20 25 -11 10 17 32 40 32 12 0 26 5 29 10 3 6 1 10
-4 10 -21 0 -10 37 14 50 14 8 24 19 21 25 -2 6 9 22 25 34 16 13 29 30 29 38
0 8 27 41 60 73 36 35 55 60 47 63 -7 3 -4 6 6 6 10 1 15 6 12 11 -3 6 1 10 9
10 9 0 16 8 16 18 0 9 15 31 33 48 17 16 41 47 51 67 11 20 23 37 28 37 5 0 6
5 3 10 -4 6 -3 10 2 9 21 -4 34 2 31 13 -3 7 10 26 29 42 21 19 29 32 22 37
-7 4 0 18 21 37 17 17 29 36 25 41 -3 6 -3 11 2 11 16 0 58 46 77 83 11 20 23
37 28 37 12 0 32 22 36 40 2 8 15 27 30 42 15 16 36 39 48 51 38 40 44 61 28
91 -8 16 -14 37 -14 47 0 18 -32 43 -42 33 -3 -2 -17 0 -31 5 -21 8 -28 7 -35
-5 -6 -11 -16 -13 -35 -9 -15 4 -27 11 -27 16 0 5 -7 9 -16 9 -8 0 -13 -4 -10
-8 2 -4 -5 -8 -17 -9 -77 -2 -99 -3 -164 -1 -40 1 -73 6 -73 10 0 4 -7 8 -15
8 -9 0 -12 6 -9 15 4 10 0 15 -12 16 -11 0 -14 3 -6 6 6 2 12 19 12 37 0 45
18 98 41 118 22 19 24 39 7 56 -9 9 -7 13 5 18 9 3 17 17 17 30 0 13 6 24 13
24 9 0 9 2 -1 9 -16 10 -14 20 5 40 8 7 12 19 9 27 -3 7 -1 14 5 16 5 2 11 12
13 24 9 45 30 104 36 104 4 0 7 6 7 13 0 6 3 31 8 55 5 31 10 40 17 30 6 -9 8
-5 6 13 -1 14 3 33 9 41 15 18 25 101 17 144 -3 19 -15 37 -28 44 -26 13 -95
18 -113 7 -7 -5 -21 -4 -30 1 -10 5 -64 9 -121 8 -78 -1 -101 2 -97 12 5 15
-1 16 -10 1z"/>
<path d="M7827 1724 c-10 -11 5 -34 22 -34 14 1 14 2 -1 14 -10 7 -15 16 -11
19 3 4 4 7 1 7 -2 0 -7 -3 -11 -6z"/>
<path d="M7835 1490 c-3 -5 -1 -10 4 -10 6 0 11 5 11 10 0 6 -2 10 -4 10 -3 0
-8 -4 -11 -10z"/>
<path d="M4970 2429 c0 -5 5 -7 10 -4 6 3 10 8 10 11 0 2 -4 4 -10 4 -5 0 -10
-5 -10 -11z"/>
<path d="M4458 1313 c7 -3 16 -2 19 1 4 3 -2 6 -13 5 -11 0 -14 -3 -6 -6z"/>
<path d="M11035 890 c-3 -5 -1 -10 4 -10 6 0 11 5 11 10 0 6 -2 10 -4 10 -3 0
-8 -4 -11 -10z"/>
<path d="M11005 810 c4 -6 11 -8 16 -5 14 9 11 15 -7 15 -8 0 -12 -5 -9 -10z"/>
<path d="M10615 490 c3 -5 8 -10 11 -10 2 0 4 5 4 10 0 6 -5 10 -11 10 -5 0
-7 -4 -4 -10z"/>
<path d="M10935 350 c-8 -13 5 -13 25 0 13 8 13 10 -2 10 -9 0 -20 -4 -23 -10z"/>
<path d="M10875 320 c3 -5 8 -10 11 -10 2 0 4 5 4 10 0 6 -5 10 -11 10 -5 0
-7 -4 -4 -10z"/>
<path d="M10531 311 c-10 -6 -10 -10 -1 -16 13 -8 24 -1 19 14 -3 6 -10 7 -18
2z"/>
<path d="M10540 272 c0 -7 6 -12 13 -12 7 0 4 -7 -7 -15 -17 -13 -17 -15 -4
-15 25 0 32 20 14 38 -10 11 -16 12 -16 4z"/>
<path d="M10895 261 c-10 -17 12 -21 25 -6 10 12 10 15 -3 15 -9 0 -18 -4 -22
-9z"/>
<path d="M11010 250 c0 -5 7 -7 15 -4 8 4 15 8 15 10 0 2 -7 4 -15 4 -8 0 -15
-4 -15 -10z"/>
<path d="M10810 240 c0 -5 7 -10 16 -10 8 0 12 5 9 10 -3 6 -10 10 -16 10 -5
0 -9 -4 -9 -10z"/>
<path d="M10886 193 c-6 -14 -5 -15 5 -6 7 7 10 15 7 18 -3 3 -9 -2 -12 -12z"/>
<path d="M11053 203 c-25 -5 -30 -18 -11 -29 7 -4 8 -3 4 4 -5 8 0 12 13 12
12 0 21 5 21 10 0 6 -1 9 -2 9 -2 -1 -13 -4 -25 -6z"/>
<path d="M10800 193 c-8 -4 -21 -13 -30 -21 -13 -13 -13 -14 0 -9 8 4 23 10
33 13 9 4 17 10 17 15 0 5 -1 9 -2 8 -2 0 -10 -3 -18 -6z"/>
<path d="M10008 153 c7 -3 16 -2 19 1 4 3 -2 6 -13 5 -11 0 -14 -3 -6 -6z"/>
<path d="M10740 120 c-8 -5 -12 -12 -9 -15 4 -3 12 1 19 10 14 17 11 19 -10 5z"/>
<path d="M10770 109 c0 -5 5 -7 10 -4 6 3 10 8 10 11 0 2 -4 4 -10 4 -5 0 -10
-5 -10 -11z"/>
<path d="M10974 107 c3 -10 6 -21 6 -23 0 -2 7 -4 15 -4 8 0 15 5 15 12 0 6
-3 8 -7 5 -3 -4 -12 1 -20 11 -14 16 -14 16 -9 -1z"/>
<path d="M10670 91 c0 -6 5 -13 10 -16 6 -3 10 1 10 9 0 9 -4 16 -10 16 -5 0
-10 -4 -10 -9z"/>
<path d="M10790 90 c0 -5 5 -10 10 -10 6 0 10 5 10 10 0 6 -4 10 -10 10 -5 0
-10 -4 -10 -10z"/>
<path d="M10568 43 c7 -3 16 -2 19 1 4 3 -2 6 -13 5 -11 0 -14 -3 -6 -6z"/>
<path d="M10710 40 c-8 -5 -11 -12 -7 -16 4 -4 13 -2 19 4 15 15 7 24 -12 12z"/>
<path d="M10895 40 c3 -5 8 -10 11 -10 2 0 4 5 4 10 0 6 -5 10 -11 10 -5 0 -7
-4 -4 -10z"/>
<path d="M10797 33 c-12 -12 -7 -22 8 -17 8 4 15 10 15 15 0 11 -14 12 -23 2z"/>
<path d="M10855 30 c-3 -5 -2 -10 4 -10 5 0 13 5 16 10 3 6 2 10 -4 10 -5 0
-13 -4 -16 -10z"/>
<path d="M10920 10 c0 -5 5 -10 10 -10 6 0 10 5 10 10 0 6 -4 10 -10 10 -5 0
-10 -4 -10 -10z"/>
<path d="M11050 10 c0 -5 5 -10 11 -10 5 0 7 5 4 10 -3 6 -8 10 -11 10 -2 0
-4 -4 -4 -10z"/>
</g>
</svg>
